<svg width="40" height="40" viewBox="0 0 40 40" fill="none" xmlns="http://www.w3.org/2000/svg">
<path d="M28.5204 9.60938H28.5149C28.0985 9.60938 27.6992 9.77562 27.4058 10.0713L18.4412 19.1058L15.0859 15.7002C14.7947 15.4047 14.3979 15.2371 13.983 15.2344C13.9796 15.2344 13.9763 15.2344 13.9729 15.2344C13.5616 15.2344 13.1668 15.3966 12.8742 15.6859L6.86997 21.6234C6.25638 22.2302 6.25083 23.2195 6.85763 23.833C7.16325 24.1421 7.56575 24.297 7.96872 24.2969C8.36559 24.2969 8.76278 24.1465 9.06731 23.8454L13.9585 19.0085L17.3243 22.4247C17.6174 22.7221 18.0172 22.8898 18.4347 22.8905H18.4374C18.8539 22.8905 19.2531 22.7243 19.5465 22.4286L28.5071 13.398L30.9143 15.8584C31.518 16.4752 32.5072 16.4859 33.1239 15.8824C33.7407 15.2789 33.7515 14.2897 33.148 13.6728L29.6318 10.0791C29.339 9.78008 28.9387 9.61086 28.5204 9.60938Z" fill="#D946EF"/>
<path d="M38.4375 18.9062C39.3005 18.9062 40 18.2067 40 17.3438V4.76562C40 3.90266 39.3005 3.20312 38.4375 3.20312H21.5625V1.5625C21.5625 0.699531 20.863 0 20 0C19.137 0 18.4375 0.699531 18.4375 1.5625V3.20312H1.5625C0.699531 3.20312 0 3.90266 0 4.76562V25.2344C0 28.6806 2.80375 31.4844 6.25 31.4844H18.4375V36.875H13.75C12.887 36.875 12.1875 37.5745 12.1875 38.4375C12.1875 39.3005 12.887 40 13.75 40H26.1719C27.0348 40 27.7344 39.3005 27.7344 38.4375C27.7344 37.5745 27.0348 36.875 26.1719 36.875H21.5625V31.4844H33.75C37.1962 31.4844 40 28.6806 40 25.2344C40 24.3714 39.3005 23.6719 38.4375 23.6719C37.5745 23.6719 36.875 24.3714 36.875 25.2344C36.875 26.9575 35.4731 28.3594 33.75 28.3594H6.25C4.52688 28.3594 3.125 26.9575 3.125 25.2344V6.32812H36.875V17.3438C36.875 18.2067 37.5745 18.9062 38.4375 18.9062Z" fill="#6366F1"/>
</svg>
