<svg width="38" height="40" viewBox="0 0 38 40" fill="none" xmlns="http://www.w3.org/2000/svg">
<path d="M3.95272 13.2449C4.491 10.2442 5.86178 7.52378 7.91709 5.37792C8.51405 4.75472 8.4928 3.76565 7.86952 3.16878C7.24624 2.57167 6.25717 2.59315 5.66038 3.21636C3.17811 5.80792 1.52397 9.08495 0.876861 12.6932C0.724517 13.5425 1.28952 14.3546 2.13889 14.507C2.23233 14.5236 2.32499 14.5317 2.41663 14.5317C3.15874 14.5317 3.81717 14.0009 3.95272 13.2449Z" fill="#D946EF"/>
<path d="M34.5883 26.234C34.5017 26.2001 33.283 25.7089 32.3872 24.5822C31.8501 23.9067 30.8672 23.7946 30.1916 24.3316C29.5162 24.8687 29.404 25.8516 29.941 26.5271C30.7488 27.543 31.688 28.2187 32.4053 28.6337C32.2854 29.3067 32.0322 30.0588 31.5892 30.6971C30.8935 31.7 29.9108 32.1875 28.5852 32.1875H9.52436C7.10779 32.1875 6.02951 30.1627 5.71772 28.6255C6.17889 28.3585 6.73248 27.9855 7.28733 27.4862C9.05686 25.8942 9.99225 23.7918 9.99225 21.4062V15.9375C9.99225 11.0069 13.989 6.9418 18.9019 6.87586C18.9155 6.8757 18.9287 6.87383 18.9422 6.87328C18.9537 6.87352 18.965 6.875 18.9766 6.875C19.0178 6.875 19.0583 6.87195 19.0987 6.86883C19.1348 6.8718 19.1708 6.87531 19.2076 6.87578C24.1635 6.94234 28.1954 11.0074 28.1954 15.9375V18.125C28.1954 18.988 28.8949 19.6875 29.7579 19.6875C30.6208 19.6875 31.3204 18.988 31.3204 18.125V15.9375C31.3204 9.74117 26.5908 4.56164 20.5391 3.83719V1.5625C20.5391 0.699531 19.8396 0 18.9766 0C18.1137 0 17.4141 0.699531 17.4141 1.5625V3.85664C14.7536 4.20984 12.294 5.43414 10.3746 7.38547C8.11287 9.68469 6.86725 12.7219 6.86725 15.9375V21.4062C6.86725 24.8955 3.72358 26.1566 3.521 26.2341C2.89311 26.4524 2.49225 27.0374 2.49225 27.7027C2.49225 29.3426 3.07647 31.1355 4.05498 32.499C5.35725 34.3133 7.29975 35.3125 9.52436 35.3125H14.3672C14.3672 37.8972 16.4701 40 19.0547 40C21.6394 40 23.7422 37.8972 23.7422 35.3125H28.5851C31.565 35.3125 33.2597 33.7713 34.1567 32.4786C35.4749 30.5788 35.6172 28.5057 35.6172 27.7027C35.6172 27.0371 35.2165 26.4522 34.5883 26.234ZM19.0547 36.875C18.1932 36.875 17.4922 36.1741 17.4922 35.3125H20.6172C20.6172 36.1741 19.9164 36.875 19.0547 36.875Z" fill="#6366F1"/>
<path d="M37.1235 12.7404C36.4702 9.09871 34.7529 5.68684 32.2878 3.13317C31.6885 2.51231 30.6994 2.49489 30.0785 3.09418C29.4576 3.69356 29.4402 4.6827 30.0395 5.30356C32.0791 7.41645 33.5025 10.2535 34.0476 13.2922C34.1831 14.0482 34.8416 14.579 35.5837 14.579C35.6753 14.579 35.7681 14.571 35.8614 14.5543C36.7108 14.4019 37.2759 13.5898 37.1235 12.7404Z" fill="#D946EF"/>
</svg>
