<svg width="32" height="40" viewBox="0 0 32 40" fill="none" xmlns="http://www.w3.org/2000/svg">
<path d="M24.0513 29.1406H19.4419C18.5789 29.1406 17.8794 29.8402 17.8794 30.7031C17.8794 31.5661 18.5789 32.2656 19.4419 32.2656H24.0513C24.9142 32.2656 25.6138 31.5661 25.6138 30.7031C25.6138 29.8402 24.9142 29.1406 24.0513 29.1406Z" fill="#6366F1"/>
<path d="M24.0513 19.6875H19.4419C18.5789 19.6875 17.8794 20.387 17.8794 21.25C17.8794 22.113 18.5789 22.8125 19.4419 22.8125H24.0513C24.9142 22.8125 25.6138 22.113 25.6138 21.25C25.6138 20.387 24.9142 19.6875 24.0513 19.6875Z" fill="#6366F1"/>
<path d="M30.2926 27.5C31.1556 27.5 31.8551 26.8005 31.8551 25.9375V6.25C31.8551 2.80375 29.0513 0 25.6051 0H6.39502C2.94877 0 0.14502 2.80375 0.14502 6.25V33.75C0.14502 37.1962 2.94877 40 6.39502 40H25.605C29.0513 40 31.855 37.1962 31.8551 33.75C31.8551 32.887 31.1556 32.1875 30.2926 32.1875C29.4296 32.1875 28.7301 32.887 28.7301 33.75C28.7301 35.4731 27.3282 36.875 25.6051 36.875H6.39502C4.67189 36.875 3.27002 35.4731 3.27002 33.75V6.25C3.27002 4.52688 4.67189 3.125 6.39502 3.125H25.6051C27.3282 3.125 28.7301 4.52688 28.7301 6.25V25.9375C28.7301 26.8005 29.4296 27.5 30.2926 27.5Z" fill="#6366F1"/>
<path d="M15.9841 6.21763C15.3189 5.66809 14.334 5.76169 13.7844 6.427L10.409 10.5124L9.07709 9.14466C8.47514 8.52645 7.48584 8.51325 6.86756 9.11528C6.24935 9.71731 6.23615 10.7065 6.83818 11.3248L8.51428 13.0461C8.52811 13.0604 8.54217 13.0743 8.55655 13.0879C9.06303 13.57 9.73905 13.8382 10.4344 13.8382C10.4941 13.838 10.5542 13.8361 10.6142 13.832C11.3677 13.7818 12.0714 13.4171 12.5469 12.8309L16.1934 8.41739C16.7431 7.75208 16.6494 6.76723 15.9841 6.21763Z" fill="#D946EF"/>
<path d="M15.9839 25.2681C15.3188 24.7185 14.3338 24.8122 13.7842 25.4774L10.4079 29.5639L9.07391 28.2016C8.47008 27.585 7.48086 27.5747 6.8643 28.1785C6.24773 28.7822 6.23742 29.7715 6.84109 30.3881L8.51719 32.0997C8.53 32.1128 8.54305 32.1256 8.55633 32.1383C9.06281 32.6204 9.73891 32.8886 10.4343 32.8886C10.4941 32.8885 10.5541 32.8865 10.6141 32.8825C11.3675 32.8323 12.0712 32.4676 12.5468 31.8814L16.1933 27.4678C16.743 26.8025 16.6492 25.8177 15.9839 25.2681Z" fill="#D946EF"/>
<path d="M24.0513 10.0781H19.4419C18.5789 10.0781 17.8794 10.7777 17.8794 11.6406C17.8794 12.5036 18.5789 13.2031 19.4419 13.2031H24.0513C24.9142 13.2031 25.6138 12.5036 25.6138 11.6406C25.6138 10.7777 24.9142 10.0781 24.0513 10.0781Z" fill="#6366F1"/>
<path d="M15.9839 15.8189C15.3188 15.2693 14.3338 15.363 13.7842 16.0283L10.4079 20.1147L9.07391 18.7524C8.47008 18.1358 7.48086 18.1255 6.8643 18.7293C6.24773 19.333 6.23742 20.3223 6.84109 20.9389L8.51719 22.6505C8.53 22.6636 8.54305 22.6765 8.55633 22.6891C9.06281 23.1712 9.73891 23.4394 10.4343 23.4394C10.4941 23.4393 10.5541 23.4373 10.6141 23.4333C11.3675 23.3831 12.0712 23.0184 12.5468 22.4322L16.1933 18.0187C16.743 17.3533 16.6492 16.3685 15.9839 15.8189Z" fill="#D946EF"/>
</svg>
